<svg width="201" height="201" viewBox="0 0 201 201" fill="none" xmlns="http://www.w3.org/2000/svg">
<rect width="201" height="201" fill="#15A9E3"/>
<path d="M48.0156 120V80.754H64.6939C68.888 80.754 71.9309 81.1109 73.8227 81.8248C75.7324 82.5208 77.2583 83.7701 78.4005 85.5727C79.5427 87.3753 80.1139 89.4366 80.1139 91.7568C80.1139 94.7016 79.2483 97.1377 77.5171 99.0652C75.7859 100.975 73.1981 102.18 69.7535 102.679C71.4669 103.679 72.8768 104.776 73.9833 105.972C75.1077 107.168 76.6158 109.292 78.5076 112.344L83.2996 120H73.8227L68.0938 111.46C66.0592 108.408 64.6671 106.49 63.9175 105.704C63.1679 104.901 62.3737 104.357 61.5349 104.071C60.6961 103.768 59.3665 103.616 57.546 103.616H55.9398V120H48.0156ZM55.9398 97.3519H61.8026C65.6041 97.3519 67.9777 97.1912 68.9236 96.87C69.8695 96.5487 70.6102 95.9955 71.1456 95.2102C71.681 94.4249 71.9488 93.4433 71.9488 92.2654C71.9488 90.9447 71.5918 89.8828 70.8779 89.0797C70.1819 88.2587 69.1914 87.7411 67.9064 87.527C67.2639 87.4377 65.3364 87.3931 62.1239 87.3931H55.9398V97.3519ZM99.7337 120V87.3931H88.0884V80.754H119.276V87.3931H107.658V120H99.7337ZM127.76 120V80.754H154.664V87.3931H135.684V96.6826H152.067V103.322H135.684V120H127.76Z" fill="white"/>
</svg>
